<svg width="48.7" height="63.35" viewBox="0 0 48.7 63.35" xmlns="http://www.w3.org/2000/svg"><g id="svgGroup" stroke-linecap="round" fill-rule="evenodd" font-size="9pt" stroke="#000" stroke-width="0.25mm" fill="#000" style="stroke:#000;stroke-width:0.25mm;fill:#000"><path d="M 0.4 60.1 L 21.4 2.35 Q 21.73 1.402 22.263 0.828 A 2.895 2.895 0 0 1 22.5 0.6 A 2.482 2.482 0 0 1 24.013 0.005 A 3.198 3.198 0 0 1 24.2 0 L 24.45 0 Q 25.55 0 26.225 0.6 A 3.219 3.219 0 0 1 26.797 1.283 Q 27.006 1.611 27.174 2.019 A 6.222 6.222 0 0 1 27.3 2.35 L 48.3 60.1 Q 48.491 60.559 48.58 60.93 A 3.221 3.221 0 0 1 48.625 61.15 A 6.144 6.144 0 0 1 48.676 61.525 Q 48.7 61.753 48.7 61.95 A 2.345 2.345 0 0 1 48.67 62.339 Q 48.637 62.538 48.565 62.693 A 0.876 0.876 0 0 1 48.275 63.05 A 1.627 1.627 0 0 1 47.561 63.328 A 2.146 2.146 0 0 1 47.25 63.35 Q 46.45 63.35 46.075 62.8 A 3.87 3.87 0 0 1 45.858 62.435 Q 45.662 62.066 45.448 61.526 A 17.718 17.718 0 0 1 45.25 61 L 38.7 42.95 L 10 42.95 L 3.45 61 A 14.858 14.858 0 0 1 3.201 61.648 Q 2.961 62.227 2.736 62.595 A 3.09 3.09 0 0 1 2.6 62.8 Q 2.2 63.35 1.35 63.35 Q 0.85 63.35 0.425 63.025 Q 0 62.7 0 61.95 Q 0 61.649 0.074 61.275 A 5.298 5.298 0 0 1 0.1 61.15 A 7.964 7.964 0 0 1 0.189 60.792 Q 0.243 60.594 0.312 60.373 A 15.285 15.285 0 0 1 0.4 60.1 Z M 24 4.35 L 11.1 39.9 L 37.6 39.9 L 24.75 4.35 L 24.55 3.65 Q 24.473 3.382 24.397 3.173 A 4.397 4.397 0 0 0 24.35 3.05 A 5.553 5.553 0 0 1 24.305 3.252 Q 24.284 3.342 24.258 3.441 A 11.121 11.121 0 0 1 24.2 3.65 L 24 4.35 Z" vector-effect="non-scaling-stroke"/></g></svg>